<svg id="svg" xmlns="http://www.w3.org/2000/svg" xmlns:xlink="http://www.w3.org/1999/xlink" width="400" height="400" viewBox="0, 0, 400,400"><g fill="#3a6536" id="svgg"><path id="path0" d="M187.597 1.233 C 176.986 4.086,165.366 12.888,160.273 21.930 C 155.372 30.630,153.809 31.205,134.961 31.231 L 121.875 31.250 121.875 62.500 L 121.875 93.750 200.000 93.750 L 278.125 93.750 278.125 62.500 L 278.125 31.250 265.039 31.231 C 246.191 31.205,244.628 30.630,239.727 21.930 C 230.323 5.235,207.058 -4.002,187.597 1.233 M43.750 227.344 L 43.750 400.000 200.000 400.000 L 356.250 400.000 356.250 227.344 L 356.250 54.688 328.906 54.688 L 301.563 54.688 301.563 85.938 L 301.563 117.188 200.000 117.188 L 98.438 117.188 98.438 85.938 L 98.438 54.688 71.094 54.688 L 43.750 54.688 43.750 227.344 M241.607 187.318 L 281.261 210.486 281.060 260.820 L 280.859 311.155 241.016 334.480 C 215.946 349.156,200.593 357.701,199.609 357.523 C 198.750 357.368,180.293 346.859,158.594 334.168 L 119.141 311.095 118.940 260.790 L 118.739 210.484 159.174 186.887 C 182.812 173.092,200.096 163.469,200.781 163.720 C 201.426 163.957,219.797 174.576,241.607 187.318 M176.604 202.652 C 163.951 210.079,153.502 216.476,153.383 216.867 C 153.123 217.721,198.277 244.085,200.000 244.085 C 201.794 244.085,246.871 217.702,246.599 216.812 C 246.386 216.118,200.920 189.118,200.000 189.140 C 199.785 189.145,189.257 195.225,176.604 202.652 M141.406 267.392 L 141.406 298.105 164.439 311.553 C 177.107 318.949,187.658 325.000,187.886 325.000 C 188.113 325.000,188.207 311.209,188.095 294.353 L 187.891 263.706 166.797 251.352 C 155.195 244.558,144.736 238.477,143.555 237.839 L 141.406 236.679 141.406 267.392 M235.156 250.235 L 212.109 263.716 211.905 294.358 C 211.793 311.211,211.902 325.000,212.147 325.000 C 212.393 325.000,222.944 318.970,235.594 311.599 L 258.594 298.198 258.594 267.459 C 258.594 250.552,258.506 236.727,258.398 236.736 C 258.291 236.746,247.832 242.821,235.156 250.235 " stroke="none"></path></g></svg>