<svg
    version="1.0"
    xmlns="http://www.w3.org/2000/svg"
    viewBox="0 0 512 512"
    preserveAspectRatio="xMidYMid meet"
>
    <g id="app-logo" viewBox="0 0 512 512" fill="rgba(255, 255, 255, 0.87)">
    <path d="M78.1 487.5 c-22.2 -12.9 -41.2 -24.2 -42.2 -25.1 -1.8 -1.6 -1.9 -4 -1.9 -51.4 0 -38.2 0.3 -50 1.2 -51.2 1.4 -1.7 80 -47.3 84.7 -49 2.7 -1.1 5.3 0.2 44.2 22.6 22.8 13.1 42.4 24.9 43.7 26.3 l2.2 2.4 0 48.8 c0 45.1 -0.1 49 -1.7 50.9 -1 1.1 -20.2 12.6 -42.8 25.6 -29.5 17 -41.8 23.6 -44 23.5 -2 0 -15.9 -7.5 -43.4 -23.4z m34.2 -73.3 c-2.5 -1.8 -62.1 -36.2 -62.7 -36.2 -0.4 0 -0.6 17 -0.6 37.8 l0 37.7 32.3 18.6 32.2 18.6 0.3 -37.6 c0.2 -34.8 0.1 -37.7 -1.5 -38.9z m55.7 54.6 l26.5 -15.3 0.3 -37.9 c0.2 -35.2 0.1 -37.8 -1.5 -37.2 -0.9 0.4 -15.8 8.8 -33 18.8 l-31.3 18.1 0 37.9 0 38 6.3 -3.5 c3.4 -2 18.1 -10.4 32.7 -18.9z m-13.3 -85.5 c18.7 -10.8 32 -19 31.5 -19.5 -0.5 -0.5 -15.2 -9.2 -32.7 -19.2 l-31.7 -18.4 -25.2 14.5 c-13.8 8 -28.4 16.4 -32.3 18.7 -4 2.2 -7.2 4.5 -7 4.9 0.3 0.9 62.6 37.5 64.1 37.6 0.5 0.1 15.4 -8.3 33.3 -18.6z" />
    <path d="M225.9 460.1 c-3.4 -3.5 -3.6 -5.9 -0.8 -9.4 l2 -2.6 68.2 -0.3 c67.6 -0.3 68.2 -0.3 72.2 -2.5 4.6 -2.4 7.5 -5.4 10.1 -10.3 1.8 -3.3 1.9 -7 2.2 -54.7 0.2 -28.2 -0.1 -51.3 -0.5 -51.3 -0.4 0.1 -12.9 15.2 -27.8 33.6 -14.8 18.5 -27.7 33.9 -28.5 34.4 -2.9 1.6 -51.2 20 -52.5 20 -2.8 0 -6.5 -4.1 -6.5 -7.3 0 -1.8 1.8 -14.7 4.1 -28.8 l4.1 -25.5 53.9 -66.5 53.9 -66.4 0 -59.7 c0 -38.3 -0.4 -61.5 -1.1 -64.6 -1.3 -6.1 -6.6 -12.7 -12.3 -15.3 -3.6 -1.6 -7 -1.9 -28.8 -1.9 l-24.8 0 0 6.3 c-0.1 10.5 -5.2 18.2 -13.8 20.7 -2.5 0.8 -26.7 1 -76.8 0.8 l-73 -0.3 -3.6 -2.4 c-6.2 -4.2 -8.3 -8.4 -8.7 -17.3 l-0.3 -7.8 -24.8 0 -24.8 0 -5.3 2.8 c-3.9 2 -6.2 4.1 -8.4 7.7 l-3 4.8 -0.5 109.5 -0.5 109.4 -2.4 1.9 c-3.2 2.6 -6.7 2.4 -9.7 -0.6 l-2.4 -2.5 0.2 -109.7 0.3 -109.8 2.3 -5 c5.3 -11.4 12 -17.7 22.9 -21.4 5.7 -1.9 8.5 -2.1 31.3 -2.1 l25 0 0 -6.4 c0 -7.8 1.1 -11 5.3 -15.5 5.1 -5.4 7.9 -6.1 24.1 -6.1 l14.4 0 0.6 -3.4 c1.8 -9.5 11.4 -22.4 20.8 -27.9 9.2 -5.4 23.8 -7.4 34 -4.7 14.8 4 27.3 16.4 31.8 31.7 l1.3 4.3 14.1 0 c11.6 0 14.8 0.4 18.1 1.9 7.7 3.5 11.5 10.2 11.5 20 l0 6 26.8 0.3 26.8 0.3 6.6 3.3 c8.3 4 15.8 11.9 19 20 2.2 5.6 2.3 6.3 2.8 59.6 l0.5 53.9 13.7 -16.9 c17.6 -21.7 22 -24.7 35.8 -24.8 13 0 24 6.8 30.1 18.6 1.6 3 2.4 6.6 2.7 12.3 0.7 13.7 1.2 12.9 -43.3 67.8 l-39.5 48.7 0 57.7 c0 35.5 -0.4 60.3 -1.1 64.3 -2.6 15.9 -14.3 28 -30.1 31 -2.9 0.6 -32.7 1 -70 1 l-65 0 -2.9 -2.9z m72.8 -69.4 l16.1 -6.3 61.6 -75.9 c33.9 -41.8 61.4 -76.4 61.3 -77 -0.5 -1.4 -26 -22.4 -27.2 -22.4 -0.5 0 -8.6 9.6 -18 21.2 -9.3 11.6 -37.1 45.9 -61.6 76.2 l-44.6 55 -2.7 17 c-2.9 18.9 -2.9 18.5 -1.8 18.5 0.4 0 8 -2.8 16.9 -6.3z m156.3 -179.1 c3.3 -4.1 6.4 -8.6 7 -10.1 1.5 -3.9 1.2 -12.2 -0.5 -15.4 -4.7 -9.1 -17.5 -12.7 -25.8 -7.2 -3 1.9 -15.9 17.2 -15.4 18.2 0.5 1.4 27.2 22.6 27.9 22.2 0.4 -0.2 3.4 -3.7 6.8 -7.7z m-158.2 -118.8 c1.7 -1.7 1.7 -36.9 0 -38.6 -0.8 -0.8 -6.5 -1.2 -18.9 -1.2 -21.4 0 -21.4 0 -23.4 -10.7 -1.7 -8.7 -4.1 -13.6 -9.2 -18.5 -9 -8.7 -22.2 -10.6 -33.8 -4.9 -9.7 4.8 -16.5 15.1 -16.5 25 0 2.3 -0.8 4.8 -1.9 6.2 -1.9 2.3 -2.4 2.4 -20.2 2.7 -11 0.2 -18.9 0.8 -19.6 1.4 -1.8 1.4 -1.9 36.8 -0.1 38.6 1.7 1.7 141.9 1.7 143.6 0z" />
    <path d="M217.3 57 c-9.1 -5.5 -8.1 -19.2 1.7 -24.3 8.6 -4.4 20 2.8 20 12.8 0 3.7 -3.6 9.8 -7 11.8 -3.8 2.3 -10.7 2.2 -14.7 -0.3z" />
    <path d="M94.2 296 c-2.2 -2 -2.2 -2.6 -2.2 -29.5 0 -26.9 0 -27.5 2.2 -29.5 2.1 -1.9 3.4 -2 28.9 -2 24.8 0 26.8 0.1 29 1.9 l2.4 1.9 0 27.7 0 27.7 -2.4 1.9 c-2.2 1.8 -4.2 1.9 -29 1.9 -25.5 0 -26.8 -0.1 -28.9 -2z m45.8 -29.5 l0 -16.5 -16.7 0.2 -16.8 0.3 -0.3 15 c-0.1 8.2 0 15.5 0.2 16.2 0.4 1 4.5 1.3 17.1 1.3 l16.5 0 0 -16.5z" />
    <path d="M178.5 295.5 c-1.4 -1.3 -2.5 -3.6 -2.5 -5 0 -1.4 1.1 -3.7 2.5 -5 l2.4 -2.5 40.1 0 40.1 0 2.4 2.5 c1.4 1.3 2.5 3.6 2.5 5 0 1.4 -1.1 3.7 -2.5 5 l-2.4 2.5 -40.1 0 -40.1 0 -2.4 -2.5z" />
    <path d="M180.3 249 c-4.7 -1.9 -5.6 -7.8 -1.8 -11.5 l2.4 -2.5 77.9 0 77.9 0 2.1 2.3 c2.9 3.1 2.8 7.2 -0.3 10.2 l-2.4 2.5 -76.8 -0.1 c-42.2 0 -77.8 -0.4 -79 -0.9z" />
    <path d="M94.6 202.9 l-2.6 -2 0 -27.5 c0 -26.1 0.1 -27.5 2 -29.4 1.9 -1.9 3.3 -2 29.4 -2 l27.5 0 2 2.6 c2 2.5 2.1 3.9 2.1 28 0 16.4 -0.4 26.2 -1.1 27.7 -2 4.3 -4.5 4.7 -31.3 4.7 -24.1 0 -25.5 -0.1 -28 -2.1z m45.4 -29.4 l0 -16.5 -17 0 -17 0 0 15.8 c0 8.7 0.3 16.2 0.7 16.5 0.3 0.4 8 0.7 17 0.7 l16.3 0 0 -16.5z" />
    <path d="M180.3 204 c-4.7 -1.9 -5.6 -7.8 -1.8 -11.5 l2.4 -2.5 40.4 0 40.4 0 2.1 2.3 c2.7 2.9 2.8 6.7 0.3 9.8 l-1.9 2.4 -39.9 0.2 c-21.9 0.1 -40.8 -0.2 -42 -0.7z" />
    <path d="M182 156.3 c-2.8 -1 -6 -4.7 -6 -6.8 0 -1.2 0.9 -3.4 2.1 -4.9 l2 -2.6 78.5 0 c77.1 0 78.4 0 80.4 2 3.8 3.8 2.2 10 -3.1 11.9 -3.3 1.1 -150.8 1.5 -153.9 0.4z" />
    </g>
</svg>